<svg width="830" height="173" viewBox="0 0 830 173" fill="none" xmlns="http://www.w3.org/2000/svg">
<rect x="2.5" y="24.9004" width="145" height="145" stroke="#2F2F2F" stroke-width="5"/>
<rect x="85" y="22.4004" width="11" height="25" fill="#2F2F2F"/>
<rect x="85" y="22.4004" width="11" height="25" fill="#2F2F2F"/>
<rect y="22.4004" width="85" height="75" fill="#2F2F2F"/>
<rect y="22.4004" width="85" height="75" fill="#2F2F2F"/>
<rect y="94.4004" width="60" height="75" fill="#2F2F2F"/>
<rect y="94.4004" width="60" height="75" fill="#2F2F2F"/>
<rect x="85" y="72.4004" width="11" height="25" fill="#2F2F2F"/>
<rect x="85" y="72.4004" width="11" height="25" fill="#2F2F2F"/>
<rect x="85" y="47.4004" width="11" height="25" fill="#2F2F2F"/>
<rect x="85" y="47.4004" width="11" height="25" fill="#2F2F2F"/>
<rect x="60" y="122.4" width="25" height="25" fill="#2F2F2F"/>
<rect x="60" y="122.4" width="25" height="25" fill="#2F2F2F"/>
<rect x="60" y="144.4" width="12" height="25" fill="#2F2F2F"/>
<rect x="60" y="144.4" width="12" height="25" fill="#2F2F2F"/>
<path d="M85 122.4H75V110.4H69V122.4H60V86.4004H85V122.4Z" fill="#2F2F2F"/>
<path d="M85 122.4H75V110.4H69V122.4H60V86.4004H85V122.4Z" fill="#2F2F2F"/>
<path d="M223.31 157.92C215.33 157.92 208.47 156.38 202.73 153.3C197.13 150.22 192.09 145.25 187.61 138.39L193.07 134.4C197.13 140.7 201.47 145.18 206.09 147.84C210.85 150.36 216.59 151.62 223.31 151.62C231.71 151.62 238.15 149.73 242.63 145.95C247.25 142.17 249.56 136.36 249.56 128.52C249.56 121.38 247.81 116.06 244.31 112.56C240.95 108.92 235.35 106.4 227.51 105L219.11 103.53C209.87 101.99 202.8 99.0504 197.9 94.7104C193.14 90.2304 190.76 83.4404 190.76 74.3404C190.76 64.8204 193.7 57.7504 199.58 53.1304C205.6 48.5104 213.3 46.2004 222.68 46.2004C230.94 46.2004 237.52 47.6704 242.42 50.6104C247.32 53.4104 251.45 57.0504 254.81 61.5304L249.77 65.9404C246.97 62.1604 243.54 59.0104 239.48 56.4904C235.56 53.8304 230.03 52.5004 222.89 52.5004C215.19 52.5004 209.1 54.3204 204.62 57.9604C200.14 61.4604 197.9 66.7804 197.9 73.9204C197.9 81.0604 199.65 86.3804 203.15 89.8804C206.65 93.2404 212.32 95.6204 220.16 97.0204L228.56 98.4904C238.08 100.17 245.15 103.25 249.77 107.73C254.39 112.07 256.7 118.79 256.7 127.89C256.7 137.83 253.76 145.32 247.88 150.36C242 155.4 233.81 157.92 223.31 157.92ZM319.254 157.92C312.954 157.92 307.214 156.87 302.034 154.77C296.994 152.53 292.724 149.17 289.224 144.69C285.724 140.07 282.994 134.26 281.034 127.26C279.214 120.26 278.304 111.86 278.304 102.06C278.304 82.6004 281.944 68.4604 289.224 59.6404C296.504 50.6804 306.514 46.2004 319.254 46.2004C331.994 46.2004 341.724 50.6104 348.444 59.4304C355.164 68.2504 358.524 81.7604 358.524 99.9604V102.48H286.074V110.04C286.074 123.2 288.944 133.42 294.684 140.7C300.424 147.98 308.614 151.62 319.254 151.62C328.074 151.62 335.004 149.59 340.044 145.53C345.084 141.47 348.934 135.45 351.594 127.47L357.054 130.62C354.114 139.44 349.634 146.23 343.614 150.99C337.594 155.61 329.474 157.92 319.254 157.92ZM319.254 52.2904C308.614 52.2904 300.424 56.0004 294.684 63.4204C288.944 70.7004 286.074 80.9204 286.074 94.0804V96.8104H350.754V94.0804C350.754 80.9204 348.094 70.7004 342.774 63.4204C337.594 56.0004 329.754 52.2904 319.254 52.2904ZM388.213 155.4V48.7204H395.353V65.1004H396.823C398.643 59.3604 402.143 54.8104 407.323 51.4504C412.643 47.9504 419.153 46.2004 426.853 46.2004C436.793 46.2004 444.423 49.2804 449.743 55.4404C455.203 61.6004 457.933 70.5604 457.933 82.3204V155.4H450.793V82.5304C450.793 73.0104 448.623 65.6604 444.283 60.4804C439.943 55.1604 433.573 52.5004 425.173 52.5004C421.113 52.5004 417.263 53.1304 413.623 54.3904C410.123 55.6504 406.973 57.5404 404.173 60.0604C401.513 62.4404 399.343 65.3804 397.663 68.8804C396.123 72.2404 395.353 76.0904 395.353 80.4304V155.4H388.213ZM506.423 155.4C503.483 155.4 501.383 154.77 500.123 153.51C498.863 152.25 498.233 150.15 498.233 147.21V55.0204H480.803V48.7204H493.193C495.293 48.7204 496.693 48.2304 497.393 47.2504C498.093 46.1304 498.443 44.5204 498.443 42.4204V18.4804H505.373V48.7204H527.003V55.0204H505.373V149.1H525.953V155.4H506.423ZM558.306 15.7504C556.206 15.7504 554.666 15.2604 553.686 14.2804C552.846 13.3004 552.426 12.0404 552.426 10.5004V8.19038C552.426 6.65039 552.846 5.39039 553.686 4.41038C554.526 3.43039 555.996 2.94039 558.096 2.94039C560.196 2.94039 561.666 3.43039 562.506 4.41038C563.486 5.39039 563.976 6.65039 563.976 8.19038V10.5004C563.976 12.0404 563.556 13.3004 562.716 14.2804C561.876 15.2604 560.406 15.7504 558.306 15.7504ZM554.736 48.7204H561.876V155.4H554.736V48.7204ZM599.648 155.4V48.7204H606.788V65.1004H608.258C610.078 59.3604 613.578 54.8104 618.758 51.4504C624.078 47.9504 630.588 46.2004 638.288 46.2004C648.228 46.2004 655.858 49.2804 661.178 55.4404C666.638 61.6004 669.368 70.5604 669.368 82.3204V155.4H662.228V82.5304C662.228 73.0104 660.058 65.6604 655.718 60.4804C651.378 55.1604 645.008 52.5004 636.608 52.5004C632.548 52.5004 628.698 53.1304 625.058 54.3904C621.558 55.6504 618.408 57.5404 615.608 60.0604C612.948 62.4404 610.778 65.3804 609.098 68.8804C607.558 72.2404 606.788 76.0904 606.788 80.4304V155.4H599.648ZM738.228 157.92C731.928 157.92 726.188 156.87 721.008 154.77C715.968 152.53 711.698 149.17 708.198 144.69C704.698 140.07 701.968 134.26 700.008 127.26C698.188 120.26 697.278 111.86 697.278 102.06C697.278 82.6004 700.918 68.4604 708.198 59.6404C715.478 50.6804 725.488 46.2004 738.228 46.2004C750.968 46.2004 760.698 50.6104 767.418 59.4304C774.138 68.2504 777.498 81.7604 777.498 99.9604V102.48H705.048V110.04C705.048 123.2 707.918 133.42 713.658 140.7C719.398 147.98 727.588 151.62 738.228 151.62C747.048 151.62 753.978 149.59 759.018 145.53C764.058 141.47 767.908 135.45 770.568 127.47L776.028 130.62C773.088 139.44 768.608 146.23 762.588 150.99C756.568 155.61 748.448 157.92 738.228 157.92ZM738.228 52.2904C727.588 52.2904 719.398 56.0004 713.658 63.4204C707.918 70.7004 705.048 80.9204 705.048 94.0804V96.8104H769.728V94.0804C769.728 80.9204 767.068 70.7004 761.748 63.4204C756.568 56.0004 748.728 52.2904 738.228 52.2904ZM815.377 155.4C812.437 155.4 810.337 154.77 809.077 153.51C807.817 152.25 807.187 150.15 807.187 147.21V0.000388622H814.327V149.1H829.657V155.4H815.377Z" fill="#2F2F2F"/>
</svg>
